<svg xmlns="http://www.w3.org/2000/svg" viewBox="0 0 64 64">
  <rect width="64" height="64" rx="14" fill="#171008"/>
  <path d="M20 24h20a3 3 0 0 1 3 3v22a5 5 0 0 1-5 5H22a5 5 0 0 1-5-5V27a3 3 0 0 1 3-3z" fill="#f4a933"/>
  <path d="M43 30h4a5 5 0 0 1 5 5v7a5 5 0 0 1-5 5h-4v-4h4a1 1 0 0 0 1-1v-7a1 1 0 0 0-1-1h-4z" fill="#f4a933"/>
  <rect x="22" y="30" width="4" height="19" rx="2" fill="#c9791f"/>
  <rect x="29" y="30" width="4" height="19" rx="2" fill="#c9791f"/>
  <rect x="36" y="30" width="4" height="19" rx="2" fill="#c9791f"/>
  <circle cx="20" cy="20" r="6" fill="#fff3d6"/>
  <circle cx="30" cy="16" r="7" fill="#fff3d6"/>
  <circle cx="40" cy="20" r="6" fill="#fff3d6"/>
  <circle cx="26" cy="22" r="5" fill="#fff8e8"/>
  <circle cx="35" cy="22" r="5" fill="#fff8e8"/>
</svg>
